# xmcd
#
# Track frame offsets:
#	150
#	25173
#	55033
#	82808
#	113209
#	143802
#	173564
#	205669
#	233102
#	266003
#	299742
#
# Disc length: 4480 seconds
#
# Revision: 0
# Processed by: cddbd v1.5.2PL0 Copyright (c) Steve Scherf et al.
# Submitted via: EZCDAudioConverter 7.0.6.1
#
DISCID=93117e0b
DTITLE=EdViesturs - K2 Life and Death on the World's Most Dangerous Mountain RdB
DTITLE=y Fred Sanders
DYEAR=2009
DGENRE=
TTITLE0=1
TTITLE1=2
TTITLE2=3
TTITLE3=4
TTITLE4=5
TTITLE5=6
TTITLE6=7
TTITLE7=8
TTITLE8=9
TTITLE9=10
TTITLE10=11
EXTD=
EXTT0=
EXTT1=
EXTT2=
EXTT3=
EXTT4=
EXTT5=
EXTT6=
EXTT7=
EXTT8=
EXTT9=
EXTT10=
PLAYORDER=
